<svg width="283" height="80" viewBox="0 0 283 80" fill="none" xmlns="http://www.w3.org/2000/svg">
<g filter="url(#filter0_d_6902_366)">
<path d="M17 22C17 17.5817 20.5817 14 25 14H258C262.418 14 266 17.5817 266 22V52C266 56.4183 262.418 60 258 60H25C20.5817 60 17 56.4183 17 52V22Z" fill="white"/>
</g>
<path d="M55.0859 44.3271H47.0352V43H55.0859V44.3271ZM63.117 44.3271H55.0662V43H63.117V44.3271ZM73.3675 44.0986H71.9701L77.3138 30.2031H78.7025L73.3675 44.0986ZM95.9755 44.3271H87.9247V43H95.9755V44.3271ZM104.007 44.3271H95.9558V43H104.007V44.3271ZM114.257 44.0986H112.86L118.203 30.2031H119.592L114.257 44.0986ZM136.865 44.3271H128.814V43H136.865V44.3271ZM144.896 44.3271H136.845V43H144.896V44.3271ZM152.927 44.3271H144.876V43H152.927V44.3271ZM160.958 44.3271H152.908V43H160.958V44.3271Z" fill="#B0BFDB"/>
<path d="M248 45H234C232.895 45 232 44.1493 232 43.1V29.8C232 28.7507 232.895 27.9 234 27.9H236V26H238V27.9H244V26H246V27.9H248C249.105 27.9 250 28.7507 250 29.8V43.1C250 44.1493 249.105 45 248 45ZM234 33.6V43.1H248V33.6H234ZM234 29.8V31.7H248V29.8H234ZM246 41.2H244V39.3H246V41.2ZM242 41.2H240V39.3H242V41.2ZM238 41.2H236V39.3H238V41.2ZM246 37.4H244V35.5H246V37.4ZM242 37.4H240V35.5H242V37.4ZM238 37.4H236V35.5H238V37.4Z" fill="#B0BFDB"/>
<defs>
<filter id="filter0_d_6902_366" x="0" y="0" width="283" height="80" filterUnits="userSpaceOnUse" color-interpolation-filters="sRGB">
<feFlood flood-opacity="0" result="BackgroundImageFix"/>
<feColorMatrix in="SourceAlpha" type="matrix" values="0 0 0 0 0 0 0 0 0 0 0 0 0 0 0 0 0 0 127 0" result="hardAlpha"/>
<feOffset dy="3"/>
<feGaussianBlur stdDeviation="8.5"/>
<feColorMatrix type="matrix" values="0 0 0 0 0.168627 0 0 0 0 0.482353 0 0 0 0 0.827451 0 0 0 0.06 0"/>
<feBlend mode="normal" in2="BackgroundImageFix" result="effect1_dropShadow_6902_366"/>
<feBlend mode="normal" in="SourceGraphic" in2="effect1_dropShadow_6902_366" result="shape"/>
</filter>
</defs>
</svg>
